<?xml version="1.0" standalone="no"?><!DOCTYPE svg PUBLIC "-//W3C//DTD SVG 1.1//EN" "http://www.w3.org/Graphics/SVG/1.1/DTD/svg11.dtd"><svg t="1555494582247" class="icon" style="" viewBox="0 0 1024 1024" version="1.1" xmlns="http://www.w3.org/2000/svg" p-id="2008" xmlns:xlink="http://www.w3.org/1999/xlink" width="32" height="32"><defs><style type="text/css"></style></defs><path d="M418.133333 947.2H138.24c-25.6 0-44.373333-20.48-44.373333-44.373333V622.933333c0-25.6 20.48-44.373333 44.373333-44.373333h279.893333c25.6 0 44.373333 20.48 44.373334 44.373333v279.893334c1.706667 23.893333-18.773333 44.373333-44.373334 44.373333zM861.866667 947.2H581.973333c-25.6 0-44.373333-20.48-44.373333-44.373333V622.933333c0-25.6 20.48-44.373333 44.373333-44.373333h279.893334c25.6 0 44.373333 20.48 44.373333 44.373333v279.893334c1.706667 23.893333-18.773333 44.373333-44.373333 44.373333zM418.133333 491.52H138.24c-25.6 0-44.373333-20.48-44.373333-44.373333V165.546667c0-25.6 20.48-44.373333 44.373333-44.373334h279.893333c25.6 0 44.373333 20.48 44.373334 44.373334v279.893333c1.706667 25.6-18.773333 46.08-44.373334 46.08zM669.013333 513.706667l-153.6-153.6c-30.72-30.72-30.72-78.506667 0-109.226667l153.6-153.6c30.72-30.72 78.506667-30.72 109.226667 0l153.6 153.6c30.72 30.72 30.72 78.506667 0 109.226667l-153.6 153.6c-30.72 29.013333-80.213333 29.013333-109.226667 0z" p-id="2009" fill="#ffffff"></path></svg>