<?xml version="1.0" standalone="no"?><!DOCTYPE svg PUBLIC "-//W3C//DTD SVG 1.1//EN" "http://www.w3.org/Graphics/SVG/1.1/DTD/svg11.dtd"><svg t="1552913332473" class="icon" style="" viewBox="0 0 1024 1024" version="1.1" xmlns="http://www.w3.org/2000/svg" p-id="5769" xmlns:xlink="http://www.w3.org/1999/xlink" width="32" height="32"><defs><style type="text/css"></style></defs><path d="M923.3 64H727.4c-19.9 0-36 16.1-36 36s16.1 36 36 36h109.2L609.1 363.7c-14.1 14.1-14.1 37 0 51 7 7 16.2 10.6 25.5 10.6s18.3-3.5 25.3-10.5L887 187.5v109.8c0 19.9 16.1 36 36 36s36-16.1 36-36V100.4c0-19.9-15.8-36.4-35.7-36.4zM414.3 363.1L187 136h109.8c19.9 0 36-16.1 36-36s-16.1-36-36-36H99.9C80 64 64 79.6 64 99.5v195.9c0 19.9 16.1 36 36 36s36-16.1 36-36V186.2l227.4 227.5c7 7 16.2 10.5 25.4 10.5s18.4-3.4 25.4-10.4c14.2-14 14.2-36.7 0.1-50.7zM416.2 605.6c-14.1-14.1-36.8-14.1-50.9 0L138 832.9V723.1c0-19.9-16.1-36-36-36s-36 16.1-36 36V920c0 19.9 16.1 36 36 36h195.9c19.9 0 36-16.1 36-36s-16.1-36-36-36H188.7l227.5-227.5c14-14 14-36.8 0-50.9zM921 689c-19.9 0-36 16.1-36 36v109.2L657.7 606.7a35.792 35.792 0 0 0-50.8 0c-14.1 14.1-14 36.9 0.1 51L834.3 885H724.5c-19.9 0-36 16.1-36 36s16.1 36 36 36h196.9c19.9 0 35.6-16.2 35.6-36.1V725c0-19.9-16.1-36-36-36z" p-id="5770"></path></svg>