<?xml version="1.0" standalone="no"?><!DOCTYPE svg PUBLIC "-//W3C//DTD SVG 1.1//EN" "http://www.w3.org/Graphics/SVG/1.1/DTD/svg11.dtd"><svg t="1552913211871" class="icon" style="" viewBox="0 0 1024 1024" version="1.1" xmlns="http://www.w3.org/2000/svg" p-id="3248" xmlns:xlink="http://www.w3.org/1999/xlink" width="32" height="32"><defs><style type="text/css"></style></defs><path d="M46.933333 442.026667c-0.853333 17.92 5.12 34.986667 18.773334 47.786666l462.506666 462.506667c11.946667 11.946667 28.16 18.773333 44.373334 18.773333 16.213333 0 32.426667-5.973333 44.373333-18.773333l339.626667-338.773333c11.946667-11.946667 18.773333-27.306667 18.773333-44.373334 0-16.213333-6.826667-32.426667-18.773333-44.373333L493.226667 61.44C480.426667 49.493333 463.36 42.666667 445.44 42.666667l-324.266667 16.213333c-32.426667 0.853333-58.026667 27.306667-59.733333 59.733333L46.933333 442.026667z m133.12-265.386667c29.013333-29.013333 76.8-29.013333 105.813334 0 29.013333 29.013333 29.013333 76.8 0 105.813333-29.013333 29.013333-76.8 29.013333-105.813334 0-29.013333-29.013333-29.013333-75.946667 0-105.813333z" p-id="3249"></path></svg>