<?xml version="1.0" standalone="no"?><!DOCTYPE svg PUBLIC "-//W3C//DTD SVG 1.1//EN" "http://www.w3.org/Graphics/SVG/1.1/DTD/svg11.dtd"><svg t="1552913311987" class="icon" style="" viewBox="0 0 1024 1024" version="1.1" xmlns="http://www.w3.org/2000/svg" p-id="5035" xmlns:xlink="http://www.w3.org/1999/xlink" width="32" height="32"><defs><style type="text/css"></style></defs><path d="M510.921 15.925c-273.010 0-494.998 221.996-494.998 494.9 0 272.874 221.996 494.9 494.998 494.9 272.874 0 494.81-222.039 494.81-494.9 0-272.923-221.996-494.9-494.81-494.9zM510.921 920.896c-226.173 0-410.191-183.93-410.191-410.049s184.014-409.966 410.191-409.966c226.034 0 410.049 183.881 410.049 409.966-0.051 226.121-184.014 410.049-410.049 410.049zM727.829 468.45h-174.607v-220.729c0-23.394-18.908-42.476-42.333-42.476s-42.476 19.075-42.476 42.476v263.104c0 23.394 19.075 42.381 42.476 42.381h216.95c23.489 0 42.333-18.985 42.333-42.381s-18.852-42.381-42.333-42.381z" p-id="5036"></path></svg>